<svg width="144" height="48" viewBox="0 0 144 48" fill="none" xmlns="http://www.w3.org/2000/svg">
<path d="M32.7475 0.487999H37.5475V17H32.7475V0.487999ZM38.5555 8.192H39.1315C39.6435 8.192 40.0195 8.176 40.2595 8.144C40.5155 8.096 40.7155 8 40.8595 7.856C41.0035 7.728 41.0915 7.544 41.1235 7.304C41.1715 7.048 41.1955 6.672 41.1955 6.176C41.1955 5.68 41.1715 5.312 41.1235 5.072C41.0915 4.816 41.0035 4.616 40.8595 4.472C40.7155 4.344 40.5155 4.264 40.2595 4.232C40.0035 4.184 39.6275 4.16 39.1315 4.16H38.5555V0.487999H40.5475C41.7315 0.487999 42.6915 0.607999 43.4275 0.847999C44.1795 1.072 44.7475 1.424 45.1315 1.904C45.4995 2.352 45.7475 2.92 45.8755 3.608C46.0035 4.28 46.0675 5.136 46.0675 6.176C46.0675 7.168 46.0035 7.992 45.8755 8.648C45.7635 9.304 45.5315 9.856 45.1795 10.304C44.7795 10.816 44.2035 11.208 43.4515 11.48C42.7155 11.736 41.7475 11.864 40.5475 11.864H38.5555V8.192ZM55.0082 9.68H56.6882C56.6882 8.784 56.6002 8.208 56.4242 7.952C56.3282 7.808 56.2002 7.72 56.0402 7.688C55.8802 7.64 55.6482 7.616 55.3442 7.616H55.0082V4.568H55.3442C56.7202 4.568 57.7762 4.68 58.5122 4.904C59.2642 5.128 59.8162 5.496 60.1682 6.008C60.4882 6.456 60.6802 7.032 60.7442 7.736C60.8242 8.44 60.8642 9.496 60.8642 10.904V11.864H55.0082V9.68ZM55.8242 17.192C54.3522 17.192 53.1922 17.072 52.3442 16.832C51.5122 16.576 50.8882 16.176 50.4722 15.632C50.1042 15.152 49.8642 14.56 49.7522 13.856C49.6402 13.136 49.5842 12.152 49.5842 10.904C49.5842 9.752 49.6242 8.84 49.7042 8.168C49.7842 7.48 49.9522 6.896 50.2082 6.416C50.4962 5.888 50.9362 5.48 51.5282 5.192C52.1362 4.888 52.9602 4.696 54.0002 4.616V11.864C54.0002 12.408 54.0242 12.8 54.0722 13.04C54.1202 13.264 54.2322 13.432 54.4082 13.544C54.6002 13.672 54.8962 13.744 55.2962 13.76C55.8082 13.792 56.3522 13.808 56.9282 13.808C57.9522 13.808 58.6962 13.784 59.1602 13.736L60.3842 13.64V16.736C59.7442 16.928 58.8642 17.056 57.7442 17.12C57.2002 17.168 56.5602 17.192 55.8242 17.192ZM72.1596 11.216C72.1596 10.368 72.1516 9.808 72.1356 9.536C72.1036 9.088 72.0636 8.792 72.0156 8.648C71.9516 8.488 71.8396 8.392 71.6796 8.36C71.5196 8.312 71.2636 8.288 70.9116 8.288H70.6716V5.288C71.2956 4.824 72.1116 4.592 73.1196 4.592C74.5596 4.592 75.5276 5.032 76.0236 5.912C76.2476 6.296 76.3996 6.768 76.4796 7.328C76.5596 7.872 76.5996 8.544 76.5996 9.344V17H72.1596V11.216ZM65.2236 4.76H69.6636V17H65.2236V4.76ZM87.517 9.416C87.517 9 87.501 8.704 87.469 8.528C87.437 8.352 87.341 8.224 87.181 8.144C87.037 8.064 86.765 8.008 86.365 7.976C86.125 7.96 85.605 7.952 84.805 7.952C84.037 7.952 83.325 7.984 82.669 8.048L81.397 8.12V5C82.901 4.712 84.525 4.568 86.269 4.568C87.613 4.568 88.661 4.664 89.413 4.856C90.181 5.048 90.757 5.352 91.141 5.768C91.477 6.152 91.693 6.64 91.789 7.232C91.901 7.824 91.957 8.648 91.957 9.704V17H87.517V9.416ZM83.965 17.168C82.861 17.168 82.045 16.864 81.517 16.256C80.989 15.632 80.725 14.696 80.725 13.448C80.725 12.68 80.781 12.064 80.893 11.6C81.005 11.12 81.197 10.744 81.469 10.472C81.741 10.184 82.117 9.984 82.597 9.872C83.077 9.744 83.709 9.68 84.493 9.68L86.509 9.728V11.864H86.269C85.901 11.864 85.661 11.872 85.549 11.888C85.229 11.904 85.061 12.056 85.045 12.344C85.029 12.44 85.021 12.64 85.021 12.944C85.021 13.184 85.029 13.368 85.045 13.496C85.077 13.624 85.125 13.728 85.189 13.808C85.269 13.92 85.389 13.984 85.549 14C85.773 14.032 86.013 14.048 86.269 14.048H86.509V16.496C86.157 16.768 85.781 16.944 85.381 17.024C84.997 17.12 84.525 17.168 83.965 17.168ZM0.56 26.488H5.36V43H0.56V26.488ZM6.368 26.488H12.464V30.16H6.368V26.488ZM6.368 32.824H11.336V36.496H6.368V32.824ZM6.368 39.328H12.464V43H6.368V39.328ZM24.0131 37.216C24.0131 36.368 24.0051 35.808 23.9891 35.536C23.9571 35.088 23.9171 34.792 23.8691 34.648C23.8051 34.488 23.6931 34.392 23.5331 34.36C23.3731 34.312 23.1171 34.288 22.7651 34.288H22.5251V31.288C23.1491 30.824 23.9651 30.592 24.9731 30.592C26.4131 30.592 27.3811 31.032 27.8771 31.912C28.1011 32.296 28.2531 32.768 28.3331 33.328C28.4131 33.872 28.4531 34.544 28.4531 35.344V43H24.0131V37.216ZM17.0771 30.76H21.5171V43H17.0771V30.76ZM36.3464 42.928C35.7064 42.928 35.1624 42.824 34.7144 42.616C34.2664 42.392 33.8984 42.04 33.6104 41.56C33.0344 40.632 32.7464 39.016 32.7464 36.712C32.7464 34.392 33.0344 32.784 33.6104 31.888C33.8984 31.44 34.2664 31.112 34.7144 30.904C35.1624 30.696 35.7064 30.592 36.3464 30.592C36.8904 30.592 37.3544 30.64 37.7384 30.736C38.1224 30.832 38.4744 31.008 38.7944 31.264V34.288H38.5304C38.1784 34.288 37.9224 34.312 37.7624 34.36C37.6184 34.392 37.5064 34.472 37.4264 34.6C37.3464 34.776 37.2984 35.024 37.2824 35.344C37.2664 35.568 37.2584 36.04 37.2584 36.76C37.2584 37.48 37.2664 37.952 37.2824 38.176C37.2984 38.512 37.3464 38.76 37.4264 38.92C37.5064 39.064 37.6344 39.152 37.8104 39.184C38.0344 39.216 38.2744 39.232 38.5304 39.232H38.7944V42.28C38.4744 42.536 38.1304 42.712 37.7624 42.808C37.3944 42.888 36.9224 42.928 36.3464 42.928ZM37.9544 47.944C37.1544 47.944 36.1944 47.896 35.0744 47.8L33.6344 47.656V44.56H36.8504C37.4264 44.56 37.9864 44.544 38.5304 44.512C38.9304 44.48 39.2184 44.4 39.3944 44.272C39.5864 44.16 39.7064 43.96 39.7544 43.672C39.7864 43.288 39.8024 42.88 39.8024 42.448V30.76H44.2424V41.656C44.2424 42.904 44.1864 43.88 44.0744 44.584C43.9624 45.304 43.7224 45.904 43.3544 46.384C42.9384 46.912 42.2984 47.304 41.4344 47.56C40.5864 47.816 39.4264 47.944 37.9544 47.944ZM53.9654 35.68H55.6454C55.6454 34.784 55.5574 34.208 55.3814 33.952C55.2854 33.808 55.1574 33.72 54.9974 33.688C54.8374 33.64 54.6054 33.616 54.3014 33.616H53.9654V30.568H54.3014C55.6774 30.568 56.7334 30.68 57.4694 30.904C58.2214 31.128 58.7734 31.496 59.1254 32.008C59.4454 32.456 59.6374 33.032 59.7014 33.736C59.7814 34.44 59.8214 35.496 59.8214 36.904V37.864H53.9654V35.68ZM54.7814 43.192C53.3094 43.192 52.1494 43.072 51.3014 42.832C50.4694 42.576 49.8454 42.176 49.4294 41.632C49.0614 41.152 48.8214 40.56 48.7094 39.856C48.5974 39.136 48.5414 38.152 48.5414 36.904C48.5414 35.752 48.5814 34.84 48.6614 34.168C48.7414 33.48 48.9094 32.896 49.1654 32.416C49.4534 31.888 49.8934 31.48 50.4854 31.192C51.0934 30.888 51.9174 30.696 52.9574 30.616V37.864C52.9574 38.408 52.9814 38.8 53.0294 39.04C53.0774 39.264 53.1894 39.432 53.3654 39.544C53.5574 39.672 53.8534 39.744 54.2534 39.76C54.7654 39.792 55.3094 39.808 55.8854 39.808C56.9094 39.808 57.6534 39.784 58.1174 39.736L59.3414 39.64V42.736C58.7014 42.928 57.8214 43.056 56.7014 43.12C56.1574 43.168 55.5174 43.192 54.7814 43.192ZM71.1168 37.216C71.1168 36.368 71.1088 35.808 71.0928 35.536C71.0608 35.088 71.0208 34.792 70.9728 34.648C70.9088 34.488 70.7968 34.392 70.6368 34.36C70.4768 34.312 70.2208 34.288 69.8688 34.288H69.6288V31.288C70.2528 30.824 71.0688 30.592 72.0768 30.592C73.5168 30.592 74.4848 31.032 74.9808 31.912C75.2048 32.296 75.3568 32.768 75.4368 33.328C75.5168 33.872 75.5568 34.544 75.5568 35.344V43H71.1168V37.216ZM64.1808 30.76H68.6208V43H64.1808V30.76ZM80.2102 25.168H84.6502V43H80.2102V25.168ZM87.1462 37.216C87.1462 36.368 87.1382 35.808 87.1222 35.536C87.0902 35.088 87.0502 34.792 87.0022 34.648C86.9382 34.488 86.8262 34.392 86.6662 34.36C86.5062 34.312 86.2502 34.288 85.8982 34.288H85.6582V31.36C86.2982 30.848 87.1142 30.592 88.1062 30.592C89.5462 30.592 90.5142 31.032 91.0102 31.912C91.2342 32.296 91.3862 32.768 91.4662 33.328C91.5462 33.872 91.5862 34.544 91.5862 35.344V43H87.1462V37.216ZM102.504 35.416C102.504 35 102.488 34.704 102.456 34.528C102.424 34.352 102.328 34.224 102.168 34.144C102.024 34.064 101.752 34.008 101.352 33.976C101.112 33.96 100.592 33.952 99.7916 33.952C99.0236 33.952 98.3116 33.984 97.6556 34.048L96.3836 34.12V31C97.8876 30.712 99.5116 30.568 101.256 30.568C102.6 30.568 103.648 30.664 104.4 30.856C105.168 31.048 105.744 31.352 106.128 31.768C106.464 32.152 106.68 32.64 106.776 33.232C106.888 33.824 106.944 34.648 106.944 35.704V43H102.504V35.416ZM98.9516 43.168C97.8476 43.168 97.0316 42.864 96.5036 42.256C95.9756 41.632 95.7116 40.696 95.7116 39.448C95.7116 38.68 95.7676 38.064 95.8796 37.6C95.9916 37.12 96.1836 36.744 96.4556 36.472C96.7276 36.184 97.1036 35.984 97.5836 35.872C98.0636 35.744 98.6956 35.68 99.4796 35.68L101.496 35.728V37.864H101.256C100.888 37.864 100.648 37.872 100.536 37.888C100.216 37.904 100.048 38.056 100.032 38.344C100.016 38.44 100.008 38.64 100.008 38.944C100.008 39.184 100.016 39.368 100.032 39.496C100.064 39.624 100.112 39.728 100.176 39.808C100.256 39.92 100.376 39.984 100.536 40C100.76 40.032 101 40.048 101.256 40.048H101.496V42.496C101.144 42.768 100.768 42.944 100.368 43.024C99.9836 43.12 99.5116 43.168 98.9516 43.168ZM116.99 31.456C117.326 31.136 117.718 30.912 118.166 30.784C118.63 30.64 119.198 30.568 119.87 30.568V34.576C119.15 34.576 118.558 34.624 118.094 34.72C117.646 34.816 117.278 34.984 116.99 35.224V31.456ZM111.542 30.76H115.982V43H111.542V30.76ZM123.658 25.168H128.098V28.624H123.658V25.168ZM123.658 30.76H128.098V43H123.658V30.76ZM139.014 35.416C139.014 35 138.998 34.704 138.966 34.528C138.934 34.352 138.838 34.224 138.678 34.144C138.534 34.064 138.262 34.008 137.862 33.976C137.622 33.96 137.102 33.952 136.302 33.952C135.534 33.952 134.822 33.984 134.166 34.048L132.894 34.12V31C134.398 30.712 136.022 30.568 137.766 30.568C139.11 30.568 140.158 30.664 140.91 30.856C141.678 31.048 142.254 31.352 142.638 31.768C142.974 32.152 143.19 32.64 143.286 33.232C143.398 33.824 143.454 34.648 143.454 35.704V43H139.014V35.416ZM135.462 43.168C134.358 43.168 133.542 42.864 133.014 42.256C132.486 41.632 132.222 40.696 132.222 39.448C132.222 38.68 132.278 38.064 132.39 37.6C132.502 37.12 132.694 36.744 132.966 36.472C133.238 36.184 133.614 35.984 134.094 35.872C134.574 35.744 135.206 35.68 135.99 35.68L138.006 35.728V37.864H137.766C137.398 37.864 137.158 37.872 137.046 37.888C136.726 37.904 136.558 38.056 136.542 38.344C136.526 38.44 136.518 38.64 136.518 38.944C136.518 39.184 136.526 39.368 136.542 39.496C136.574 39.624 136.622 39.728 136.686 39.808C136.766 39.92 136.886 39.984 137.046 40C137.27 40.032 137.51 40.048 137.766 40.048H138.006V42.496C137.654 42.768 137.278 42.944 136.878 43.024C136.494 43.12 136.022 43.168 135.462 43.168Z" fill="#FFFFFF"/>
</svg>
