<svg width="50" height="46" viewBox="0 0 50 46" fill="none" xmlns="http://www.w3.org/2000/svg">
<path d="M2.63158 46V35.1389L37.3026 1.53333C37.8289 1.02222 38.4211 0.638889 39.0789 0.383333C39.7368 0.127778 40.3947 0 41.0526 0C41.7544 0 42.4232 0.127778 43.0592 0.383333C43.6952 0.638889 44.2544 1.02222 44.7368 1.53333L48.4211 5.11111C48.9474 5.57963 49.3421 6.12269 49.6053 6.74028C49.8684 7.35787 50 8.00741 50 8.68889C50 9.32778 49.8684 9.96667 49.6053 10.6056C49.3421 11.2444 48.9474 11.8194 48.4211 12.3306L13.8158 46H2.63158ZM7.89474 40.8889H11.5789L37.4342 15.8444L35.5921 13.9917L33.6842 12.2028L7.89474 37.3111V40.8889ZM35.5921 13.9917L33.6842 12.2028L37.4342 15.8444L35.5921 13.9917ZM28.9474 46C32.193 46 35.1974 45.212 37.9605 43.6361C40.7237 42.0602 42.1053 39.8667 42.1053 37.0556C42.1053 35.5222 41.6886 34.2019 40.8553 33.0944C40.0219 31.987 38.9035 31.0287 37.5 30.2194L33.6184 33.9889C34.6272 34.4148 35.4167 34.8833 35.9868 35.3944C36.557 35.9056 36.8421 36.4593 36.8421 37.0556C36.8421 38.0352 36.0417 38.919 34.4408 39.7069C32.8399 40.4949 31.0088 40.8889 28.9474 40.8889C28.2018 40.8889 27.5768 41.1338 27.0724 41.6236C26.568 42.1134 26.3158 42.7204 26.3158 43.4444C26.3158 44.1685 26.568 44.7755 27.0724 45.2653C27.5768 45.7551 28.2018 46 28.9474 46ZM4.14474 26.45L8.09211 22.6167C7.21491 22.2759 6.52412 21.9245 6.01974 21.5625C5.51535 21.2005 5.26316 20.8278 5.26316 20.4444C5.26316 19.9333 5.6579 19.4222 6.44737 18.9111C7.23684 18.4 8.90351 17.612 11.4474 16.5472C15.307 14.9287 17.8728 13.4593 19.1447 12.1389C20.4167 10.8185 21.0526 9.32778 21.0526 7.66667C21.0526 5.32407 20.0877 3.46065 18.1579 2.07639C16.2281 0.69213 13.6842 0 10.5263 0C8.55263 0 6.78728 0.340741 5.23026 1.02222C3.67325 1.7037 2.47807 2.53426 1.64474 3.51389C1.16228 4.06759 0.964912 4.68519 1.05263 5.36667C1.14035 6.04815 1.4693 6.60185 2.03947 7.02778C2.60965 7.4963 3.24561 7.68796 3.94737 7.60278C4.64912 7.51759 5.24123 7.24074 5.72368 6.77222C6.33772 6.17593 7.01754 5.75 7.76316 5.49444C8.50877 5.23889 9.42982 5.11111 10.5263 5.11111C12.3246 5.11111 13.6513 5.36667 14.5066 5.87778C15.3618 6.38889 15.7895 6.98519 15.7895 7.66667C15.7895 8.26296 15.4057 8.80602 14.6382 9.29583C13.8706 9.78565 12.1053 10.6481 9.34211 11.8833C5.83333 13.3741 3.39912 14.7264 2.03947 15.9403C0.679825 17.1542 0 18.6556 0 20.4444C0 21.8074 0.372807 22.9681 1.11842 23.9264C1.86404 24.8847 2.87281 25.7259 4.14474 26.45Z" fill="white"/>
</svg>
