<svg width="60" height="46" viewBox="0 0 60 46" fill="none" xmlns="http://www.w3.org/2000/svg">
<path d="M0 46V38.8444C0 37.4389 0.388128 36.1185 1.16438 34.8833C1.94064 33.6482 3.0137 32.7111 4.38356 32.0722C6.71233 30.9648 9.3379 30.0278 12.2603 29.2611C15.1826 28.4944 18.4018 28.1111 21.9178 28.1111C25.4338 28.1111 28.653 28.4944 31.5753 29.2611C34.4977 30.0278 37.1233 30.9648 39.4521 32.0722C40.8219 32.7111 41.895 33.6482 42.6712 34.8833C43.4475 36.1185 43.8356 37.4389 43.8356 38.8444V46H0ZM5.47945 40.8889H38.3562V38.8444C38.3562 38.3759 38.2306 37.95 37.9795 37.5667C37.7283 37.1833 37.3973 36.8852 36.9863 36.6722C35.3425 35.9056 33.2306 35.1389 30.6507 34.3722C28.0708 33.6056 25.1598 33.2222 21.9178 33.2222C18.6758 33.2222 15.7648 33.6056 13.1849 34.3722C10.605 35.1389 8.49315 35.9056 6.84932 36.6722C6.43836 36.8852 6.10731 37.1833 5.85616 37.5667C5.60502 37.95 5.47945 38.3759 5.47945 38.8444V40.8889ZM21.9178 25.5556C18.9041 25.5556 16.3242 24.5546 14.1781 22.5528C12.032 20.5509 10.9589 18.1444 10.9589 15.3333H10.274C9.86301 15.3333 9.53196 15.2162 9.28082 14.9819C9.02968 14.7477 8.90411 14.4389 8.90411 14.0556C8.90411 13.6722 9.02968 13.3634 9.28082 13.1292C9.53196 12.8949 9.86301 12.7778 10.274 12.7778H10.9589C10.9589 10.8611 11.4612 9.13611 12.4658 7.60278C13.4703 6.06944 14.7945 4.85556 16.4384 3.96111V6.38889C16.4384 6.77222 16.5639 7.08102 16.8151 7.31528C17.0662 7.54954 17.3973 7.66667 17.8082 7.66667C18.2192 7.66667 18.5502 7.54954 18.8014 7.31528C19.0525 7.08102 19.1781 6.77222 19.1781 6.38889V2.93889C19.589 2.81111 20.0228 2.71528 20.4795 2.65139C20.9361 2.5875 21.4155 2.55556 21.9178 2.55556C22.4201 2.55556 22.8995 2.5875 23.3562 2.65139C23.8128 2.71528 24.2466 2.81111 24.6575 2.93889V6.38889C24.6575 6.77222 24.7831 7.08102 25.0342 7.31528C25.2854 7.54954 25.6164 7.66667 26.0274 7.66667C26.4384 7.66667 26.7694 7.54954 27.0205 7.31528C27.2717 7.08102 27.3973 6.77222 27.3973 6.38889V3.96111C29.0411 4.85556 30.3653 6.06944 31.3699 7.60278C32.3744 9.13611 32.8767 10.8611 32.8767 12.7778H33.5616C33.9726 12.7778 34.3037 12.8949 34.5548 13.1292C34.8059 13.3634 34.9315 13.6722 34.9315 14.0556C34.9315 14.4389 34.8059 14.7477 34.5548 14.9819C34.3037 15.2162 33.9726 15.3333 33.5616 15.3333H32.8767C32.8767 18.1444 31.8037 20.5509 29.6575 22.5528C27.5114 24.5546 24.9315 25.5556 21.9178 25.5556ZM21.9178 20.4444C23.4247 20.4444 24.7146 19.944 25.7877 18.9431C26.8607 17.9421 27.3973 16.7389 27.3973 15.3333H16.4384C16.4384 16.7389 16.9749 17.9421 18.0479 18.9431C19.121 19.944 20.411 20.4444 21.9178 20.4444ZM42.4658 30.6667L42.0548 28.75C41.7808 28.6648 41.5183 28.569 41.2671 28.4625C41.016 28.356 40.7763 28.1963 40.5479 27.9833L38.6301 28.6222L37.2603 26.3222L38.7671 25.0444V23.5111L37.2603 22.2333L38.6301 19.9333L40.5479 20.5722C40.7306 20.4019 40.9589 20.2528 41.2329 20.125C41.5068 19.9972 41.7808 19.8907 42.0548 19.8056L42.4658 17.8889H45.2055L45.6164 19.8056C45.8904 19.8907 46.1644 19.9972 46.4384 20.125C46.7123 20.2528 46.9406 20.4019 47.1233 20.5722L49.0411 19.9333L50.411 22.2333L48.9041 23.5111V25.0444L50.411 26.3222L49.0411 28.6222L47.1233 27.9833C46.895 28.1963 46.6553 28.356 46.4041 28.4625C46.153 28.569 45.8904 28.6648 45.6164 28.75L45.2055 30.6667H42.4658ZM43.8356 26.1944C44.3836 26.1944 44.863 26.0028 45.274 25.6194C45.6849 25.2361 45.8904 24.7889 45.8904 24.2778C45.8904 23.7667 45.6849 23.3194 45.274 22.9361C44.863 22.5528 44.3836 22.3611 43.8356 22.3611C43.2877 22.3611 42.8082 22.5528 42.3973 22.9361C41.9863 23.3194 41.7808 23.7667 41.7808 24.2778C41.7808 24.7889 41.9863 25.2361 42.3973 25.6194C42.8082 26.0028 43.2877 26.1944 43.8356 26.1944ZM48.7671 17.8889L48.2192 15.2056C47.8082 15.0778 47.4315 14.9181 47.089 14.7264C46.7466 14.5347 46.4384 14.3111 46.1644 14.0556L43.2877 14.95L41.3699 11.8833L43.6986 9.96667C43.6073 9.7537 43.5616 9.58333 43.5616 9.45556V8.43333C43.5616 8.30556 43.6073 8.13519 43.6986 7.92222L41.3699 6.00556L43.2877 2.93889L46.1644 3.83333C46.4384 3.57778 46.7466 3.35417 47.089 3.1625C47.4315 2.97083 47.8082 2.81111 48.2192 2.68333L48.7671 0H52.6027L53.1507 2.68333C53.5616 2.81111 53.9384 2.97083 54.2808 3.1625C54.6233 3.35417 54.9315 3.57778 55.2055 3.83333L58.0822 2.93889L60 6.00556L57.6712 7.92222C57.7626 8.13519 57.8082 8.30556 57.8082 8.43333V9.45556C57.8082 9.58333 57.7626 9.7537 57.6712 9.96667L60 11.8833L58.0822 14.95L55.2055 14.0556C54.9315 14.3111 54.6233 14.5347 54.2808 14.7264C53.9384 14.9181 53.5616 15.0778 53.1507 15.2056L52.6027 17.8889H48.7671ZM50.6849 12.1389C51.6438 12.1389 52.4543 11.8301 53.1164 11.2125C53.7785 10.5949 54.1096 9.83889 54.1096 8.94444C54.1096 8.05 53.7785 7.29398 53.1164 6.67639C52.4543 6.0588 51.6438 5.75 50.6849 5.75C49.726 5.75 48.9155 6.0588 48.2534 6.67639C47.5913 7.29398 47.2603 8.05 47.2603 8.94444C47.2603 9.83889 47.5913 10.5949 48.2534 11.2125C48.9155 11.8301 49.726 12.1389 50.6849 12.1389Z" fill="white"/>
</svg>
