<svg width="60" height="46" viewBox="0 0 60 46" fill="none" xmlns="http://www.w3.org/2000/svg">
<path d="M45 31.625C42.9 31.625 41.125 30.9302 39.675 29.5406C38.225 28.151 37.5 26.45 37.5 24.4375C37.5 22.425 38.225 20.724 39.675 19.3344C41.125 17.9448 42.9 17.25 45 17.25C47.1 17.25 48.875 17.9448 50.325 19.3344C51.775 20.724 52.5 22.425 52.5 24.4375C52.5 26.45 51.775 28.151 50.325 29.5406C48.875 30.9302 47.1 31.625 45 31.625ZM30 46V41.975C30 40.825 30.3125 39.7589 30.9375 38.7766C31.5625 37.7943 32.45 37.0875 33.6 36.6562C35.4 35.9375 37.2625 35.3984 39.1875 35.0391C41.1125 34.6797 43.05 34.5 45 34.5C46.95 34.5 48.8875 34.6797 50.8125 35.0391C52.7375 35.3984 54.6 35.9375 56.4 36.6562C57.55 37.0875 58.4375 37.7943 59.0625 38.7766C59.6875 39.7589 60 40.825 60 41.975V46H30ZM24 23C20.7 23 17.875 21.874 15.525 19.6219C13.175 17.3698 12 14.6625 12 11.5C12 8.3375 13.175 5.63021 15.525 3.37812C17.875 1.12604 20.7 0 24 0C27.3 0 30.125 1.12604 32.475 3.37812C34.825 5.63021 36 8.3375 36 11.5C36 14.6625 34.825 17.3698 32.475 19.6219C30.125 21.874 27.3 23 24 23ZM0 46V37.95C0 36.3208 0.425 34.8234 1.275 33.4578C2.125 32.0922 3.3 31.05 4.8 30.3312C7.8 28.8937 10.9125 27.7917 14.1375 27.025C17.3625 26.2583 20.65 25.875 24 25.875C25.75 25.875 27.5 26.0187 29.25 26.3062C31 26.5938 32.75 26.9292 34.5 27.3125L31.95 29.7562L29.4 32.2C28.5 31.9604 27.6 31.8047 26.7 31.7328C25.8 31.6609 24.9 31.625 24 31.625C21.1 31.625 18.2625 31.9604 15.4875 32.6312C12.7125 33.3021 10.05 34.2604 7.5 35.5062C7 35.7458 6.625 36.0812 6.375 36.5125C6.125 36.9437 6 37.4229 6 37.95V40.25H24V46H0ZM24 17.25C25.65 17.25 27.0625 16.687 28.2375 15.5609C29.4125 14.4349 30 13.0813 30 11.5C30 9.91875 29.4125 8.5651 28.2375 7.43906C27.0625 6.31302 25.65 5.75 24 5.75C22.35 5.75 20.9375 6.31302 19.7625 7.43906C18.5875 8.5651 18 9.91875 18 11.5C18 13.0813 18.5875 14.4349 19.7625 15.5609C20.9375 16.687 22.35 17.25 24 17.25Z" fill="white"/>
</svg>
