<svg width="50" height="46" viewBox="0 0 50 46" fill="none" xmlns="http://www.w3.org/2000/svg">
<path d="M44.2645 46L29.4872 32.0277L35.1552 26.6685L49.9325 40.6408L44.2645 46ZM7.01754 46L1.34953 40.6408L19.973 23.0319L15.3846 18.6935L13.4953 20.4799L10.054 17.2261V22.4577L8.16464 24.2441L0 16.5243L1.88934 14.7379H7.4224L4.04858 11.5478L13.6302 2.48821C14.5299 1.63754 15.4971 1.0208 16.5317 0.638003C17.5664 0.255201 18.6235 0.0638003 19.7031 0.0638003C20.7827 0.0638003 21.8399 0.255201 22.8745 0.638003C23.9091 1.0208 24.8763 1.63754 25.776 2.48821L19.5682 8.35784L22.942 11.5478L21.0526 13.3343L25.641 17.6727L31.7139 11.9307C31.534 11.4628 31.3878 10.9736 31.2753 10.4632C31.1628 9.95284 31.1066 9.44244 31.1066 8.93204C31.1066 6.42256 32.0175 4.30652 33.8394 2.58391C35.6613 0.861304 37.8992 0 40.5533 0C41.2281 0 41.8691 0.0638003 42.4764 0.191401C43.0837 0.319001 43.7022 0.510402 44.332 0.765603L37.6518 7.08183L42.5101 11.6755L49.1903 5.35922C49.5052 5.95469 49.7188 6.53953 49.8313 7.11373C49.9438 7.68793 50 8.29404 50 8.93204C50 11.4415 49.0891 13.5576 47.2672 15.2802C45.4453 17.0028 43.2074 17.8641 40.5533 17.8641C40.0135 17.8641 39.4737 17.8215 38.9339 17.7365C38.3941 17.6514 37.8767 17.5025 37.3819 17.2899L7.01754 46Z" fill="white"/>
</svg>
